<?xml version="1.0" encoding="iso-8859-1"?>
<!-- Generator: Adobe Illustrator 18.1.1, SVG Export Plug-In . SVG Version: 6.00 Build 0)  -->
<svg xmlns="http://www.w3.org/2000/svg" xmlns:xlink="http://www.w3.org/1999/xlink" version="1.1" id="Capa_1" x="0px" y="0px" viewBox="0 0 63.81 63.81" style="enable-background:new 0 0 63.81 63.81;" xml:space="preserve" width="512px" height="512px">
<g>
	<g>
		<path d="M24.803,17.952c-1.196,1.167-2.571,2.129-4.027,2.946c-1.502-0.482-2.934-1.247-3.93-2.488    c-0.232-0.289-0.638-0.682-1.283-0.779l-2.074,0.117l-2.062,4.238l0.448-3.783h0.075v-0.626h-1.559v0.626h0.081L11,21.988    l-2.196-4.334c0,0-0.733-0.85-3.493,0.536c-0.012,0.014-1.654,0.827-4.04,5.104C0.563,24.511,0,25.831,0,27.072    c0,1.216,0.945,2.64,1.491,3.663c0.992,1.86,2.373,3.509,4.151,4.651l-0.008,2.35v14.863c0,1.226,0.896,2.214,2.151,2.214    c1.256,0,2.276-0.99,2.276-2.214V37.113c0,0,0.072-0.785,0.873-0.794c0.8-0.011,0.779,0.752,0.779,0.752v15.485    c0,1.223,1.019,2.212,2.276,2.212c1.256,0,2.274-0.989,2.274-2.212l0.075-15.978c0-0.15,0.015-13.722,0.015-13.722    c1.271,0.828,2.738,1.407,4.156,1.781c1.01,0.266,1.985-0.486,2.802-0.974c1.469-0.88,2.856-1.926,4.082-3.123    C29.086,18.891,26.493,16.301,24.803,17.952z M5.654,30.444c-0.365-0.491-0.692-1.016-1.001-1.558    c-0.295-0.517-0.544-1.06-0.789-1.604c-0.049-0.109-0.083-0.2-0.107-0.28c0.422-1.444,1.036-2.879,1.917-4.106L5.654,30.444z     M11.197,27.846l-0.88-1.624l0.913-3.113l0.725,3.159L11.197,27.846z" fill="#FFFFFF"/>
		<circle cx="10.914" cy="12.864" r="3.868" fill="#FFFFFF"/>
		<path d="M60.516,17.952c-1.256,1.167-2.698,2.129-4.228,2.946c-1.577-0.482-3.078-1.247-4.124-2.488    c-0.241-0.289-0.67-0.682-1.346-0.779l-2.176,0.117l-2.165,4.238l0.471-3.783h0.079v-0.626h-0.644H46.13h-0.645v0.626h0.08    l0.47,3.783l-2.164-4.238l-2.175-0.117c-0.677,0.097-1.104,0.491-1.347,0.779c-1.047,1.242-2.547,2.006-4.124,2.488    c-1.529-0.816-2.972-1.779-4.227-2.946c-1.774-1.651-4.495,0.938-2.717,2.588c1.287,1.197,2.742,2.243,4.285,3.123    c0.855,0.488,1.88,1.24,2.94,0.974c1.486-0.374,3.026-0.953,4.359-1.781c0,0,0.018,13.572,0.018,13.722l0.078,15.978    c0,1.223,0.876,2.256,2.193,2.256c1.318,0,2.276-0.991,2.276-2.214V37.113c0,0,0.16-0.787,0.872-0.794    c0.777,0.131,0.778,0.752,0.778,0.752v15.485c0,1.223,0.957,2.212,2.276,2.212c1.317,0,2.192-0.989,2.192-2.212l0.079-15.978    c0-0.15,0.018-13.722,0.018-13.722c1.333,0.828,2.871,1.407,4.358,1.781c1.061,0.266,2.086-0.486,2.941-0.974    c1.543-0.88,2.998-1.926,4.284-3.123C65.011,18.891,62.289,16.301,60.516,17.952z M46.257,27.804l-0.774-1.537l0.774-3.118    l0.773,3.118L46.257,27.804z" fill="#FFFFFF"/>
		<circle cx="46.285" cy="12.864" r="3.868" fill="#FFFFFF"/>
	</g>
</g>
<g>
</g>
<g>
</g>
<g>
</g>
<g>
</g>
<g>
</g>
<g>
</g>
<g>
</g>
<g>
</g>
<g>
</g>
<g>
</g>
<g>
</g>
<g>
</g>
<g>
</g>
<g>
</g>
<g>
</g>
</svg>
