<svg xmlns="http://www.w3.org/2000/svg" xmlns:xlink="http://www.w3.org/1999/xlink" xmlns:fi="http://pattern.flaticon.com/" x="0" y="0" width="4000" height="2000" viewBox="0 0 4000 2000"><rect x="0px" y="0px" width="100%" height="100%" opacity="1" fill="#2b3f8a"/><defs><g transform="matrix(0.1171875 0 0 0.1171875 97 26)" id="L1_4"><path d="M366.933,170.667h-17.067c-4.71,0-8.533,3.823-8.533,8.533s3.823,8.533,8.533,8.533h17.067     c4.71,0,8.533-3.823,8.533-8.533S371.644,170.667,366.933,170.667z"/><path d="M366.933,204.8h-17.067c-4.71,0-8.533,3.823-8.533,8.533c0,4.71,3.823,8.533,8.533,8.533h17.067     c4.71,0,8.533-3.823,8.533-8.533C375.467,208.623,371.644,204.8,366.933,204.8z"/><path d="M366.933,136.533h-17.067c-4.71,0-8.533,3.823-8.533,8.533c0,4.71,3.823,8.533,8.533,8.533h17.067     c4.71,0,8.533-3.823,8.533-8.533C375.467,140.356,371.644,136.533,366.933,136.533z"/><path d="M366.933,409.6h-17.067c-4.71,0-8.533,3.823-8.533,8.533s3.823,8.533,8.533,8.533h17.067c4.71,0,8.533-3.823,8.533-8.533     S371.644,409.6,366.933,409.6z"/><path d="M179.2,136.533H128c-4.71,0-8.533,3.823-8.533,8.533v119.467c0,4.71,3.823,8.533,8.533,8.533h51.2     c4.71,0,8.533-3.823,8.533-8.533V145.067C187.733,140.356,183.91,136.533,179.2,136.533z M170.667,256h-34.133V153.6h34.133V256z     "/><path d="M179.2,409.6H128c-4.71,0-8.533,3.823-8.533,8.533s3.823,8.533,8.533,8.533h51.2c4.71,0,8.533-3.823,8.533-8.533     S183.91,409.6,179.2,409.6z"/><path d="M179.2,443.733H128c-4.71,0-8.533,3.823-8.533,8.533c0,4.71,3.823,8.533,8.533,8.533h51.2     c4.71,0,8.533-3.823,8.533-8.533C187.733,447.556,183.91,443.733,179.2,443.733z"/><path d="M366.933,443.733h-17.067c-4.71,0-8.533,3.823-8.533,8.533c0,4.71,3.823,8.533,8.533,8.533h17.067     c4.71,0,8.533-3.823,8.533-8.533C375.467,447.556,371.644,443.733,366.933,443.733z"/><path d="M469.333,443.733H435.2c-4.71,0-8.533,3.823-8.533,8.533c0,4.71,3.823,8.533,8.533,8.533h34.133     c4.71,0,8.533-3.823,8.533-8.533C477.867,447.556,474.044,443.733,469.333,443.733z"/><path d="M290.133,145.067c0-4.71-3.823-8.533-8.533-8.533h-34.133c-4.71,0-8.533,3.823-8.533,8.533v119.467     c0,4.71,3.823,8.533,8.533,8.533H281.6c4.71,0,8.533-3.823,8.533-8.533V145.067z M273.067,256H256V153.6h17.067V256z"/><path d="M469.333,409.6H435.2c-4.71,0-8.533,3.823-8.533,8.533s3.823,8.533,8.533,8.533h34.133c4.71,0,8.533-3.823,8.533-8.533     S474.044,409.6,469.333,409.6z"/><path d="M281.6,443.733h-34.133c-4.71,0-8.533,3.823-8.533,8.533c0,4.71,3.823,8.533,8.533,8.533H281.6     c4.71,0,8.533-3.823,8.533-8.533C290.133,447.556,286.31,443.733,281.6,443.733z"/><path d="M435.2,307.2c4.71,0,8.533-3.823,8.533-8.533v-85.333c0-4.71-3.823-8.533-8.533-8.533s-8.533,3.823-8.533,8.533v85.333     C426.667,303.377,430.49,307.2,435.2,307.2z"/><path d="M477.867,213.333c0-4.71-3.823-8.533-8.533-8.533s-8.533,3.823-8.533,8.533v85.333c0,4.71,3.823,8.533,8.533,8.533     s8.533-3.823,8.533-8.533V213.333z"/><path d="M486.4,68.267h-51.2c-4.71,0-8.533,3.823-8.533,8.533s3.823,8.533,8.533,8.533h51.2c4.702,0,8.533,3.831,8.533,8.533     V486.4c0,4.702-3.831,8.533-8.533,8.533h-76.8v-358.4h51.2c4.71,0,8.533-3.823,8.533-8.533s-3.823-8.533-8.533-8.533h-51.2v-76.8     c0-14.353-11.247-25.6-25.6-25.6h-51.2c-14.114,0-25.6,11.486-25.6,25.6v452.267h-85.333V51.2H281.6     c4.71,0,8.533-3.823,8.533-8.533c0-4.71-3.823-8.533-8.533-8.533h-59.733V25.6c0-14.353-11.247-25.6-25.6-25.6h-85.333     c-14.114,0-25.6,11.486-25.6,25.6v76.8H42.667c-4.71,0-8.533,3.823-8.533,8.533s3.823,8.533,8.533,8.533h42.667v375.467H25.6     c-4.702,0-8.533-3.831-8.533-8.533V76.8c0-4.702,3.831-8.533,8.533-8.533h34.133c4.71,0,8.533-3.823,8.533-8.533     S64.444,51.2,59.733,51.2H25.6C11.486,51.2,0,62.686,0,76.8v409.6C0,500.514,11.486,512,25.6,512h460.8     c14.114,0,25.6-11.486,25.6-25.6V93.867C512,79.753,500.514,68.267,486.4,68.267z M204.8,494.933H102.4V68.267h76.8     c4.71,0,8.533-3.823,8.533-8.533S183.91,51.2,179.2,51.2h-76.8V25.6c0-4.787,3.746-8.533,8.533-8.533h85.333     c4.864,0,8.533,3.669,8.533,8.533V494.933z M392.533,494.933h-68.267v-409.6h42.667c4.71,0,8.533-3.823,8.533-8.533     s-3.823-8.533-8.533-8.533h-42.667v-25.6c0-4.787,3.746-8.533,8.533-8.533H384c4.864,0,8.533,3.669,8.533,8.533V494.933z"/><path d="M59.733,409.6H42.667c-4.71,0-8.533,3.823-8.533,8.533s3.823,8.533,8.533,8.533h17.067c4.71,0,8.533-3.823,8.533-8.533     S64.444,409.6,59.733,409.6z"/><path d="M59.733,443.733H42.667c-4.71,0-8.533,3.823-8.533,8.533c0,4.71,3.823,8.533,8.533,8.533h17.067     c4.71,0,8.533-3.823,8.533-8.533C68.267,447.556,64.444,443.733,59.733,443.733z"/><path d="M281.6,409.6h-34.133c-4.71,0-8.533,3.823-8.533,8.533s3.823,8.533,8.533,8.533H281.6c4.71,0,8.533-3.823,8.533-8.533     S286.31,409.6,281.6,409.6z"/><path d="M59.733,204.8H42.667c-4.71,0-8.533,3.823-8.533,8.533c0,4.71,3.823,8.533,8.533,8.533h17.067     c4.71,0,8.533-3.823,8.533-8.533C68.267,208.623,64.444,204.8,59.733,204.8z"/><path d="M59.733,238.933H42.667c-4.71,0-8.533,3.823-8.533,8.533S37.956,256,42.667,256h17.067c4.71,0,8.533-3.823,8.533-8.533     S64.444,238.933,59.733,238.933z"/></g><g transform="matrix(0.1171875 0 0 0.1171875 114 217)" id="L1_5"><path d="M162.133,256h34.133c4.719,0,8.533-3.823,8.533-8.533s-3.814-8.533-8.533-8.533h-34.133     c-4.719,0-8.533,3.823-8.533,8.533S157.414,256,162.133,256z"/><path d="M128,204.8c4.719,0,8.533-3.823,8.533-8.533s-3.814-8.533-8.533-8.533H93.867c-4.719,0-8.533,3.823-8.533,8.533v68.267     c0,4.71,3.814,8.533,8.533,8.533H128c4.719,0,8.533-3.823,8.533-8.533c0-4.71-3.814-8.533-8.533-8.533h-25.6v-17.067H128     c4.719,0,8.533-3.823,8.533-8.533s-3.814-8.533-8.533-8.533h-25.6V204.8H128z"/><path d="M256,409.6c-4.719,0-8.533,3.823-8.533,8.533v22.067l-57.233,57.233c-3.336,3.337-3.336,8.73,0,12.066     c1.664,1.664,3.849,2.5,6.033,2.5c2.185,0,4.369-0.836,6.033-2.5l59.733-59.733c1.596-1.604,2.5-3.772,2.5-6.033v-25.6     C264.533,413.423,260.719,409.6,256,409.6z"/><path d="M287.633,463.3c-3.337-3.337-8.73-3.337-12.066,0c-3.337,3.336-3.337,8.73,0,12.066L309.7,509.5     c1.664,1.664,3.849,2.5,6.033,2.5c2.185,0,4.369-0.836,6.033-2.5c3.337-3.336,3.337-8.73,0-12.066L287.633,463.3z"/><path d="M503.467,17.067H264.533V8.533C264.533,3.823,260.719,0,256,0s-8.533,3.823-8.533,8.533v8.533H8.533     C3.814,17.067,0,20.89,0,25.6v34.133c0,4.71,3.814,8.533,8.533,8.533h443.733c4.719,0,8.533-3.823,8.533-8.533     s-3.814-8.533-8.533-8.533h-435.2V34.133h477.867V51.2H486.4c-4.719,0-8.533,3.823-8.533,8.533v290.133     c0,14.114-11.486,25.6-25.6,25.6H59.733c-14.114,0-25.6-11.486-25.6-25.6v-256c0-4.71-3.814-8.533-8.533-8.533     s-8.533,3.823-8.533,8.533v256c0,23.526,19.14,42.667,42.667,42.667h392.533c23.526,0,42.667-19.14,42.667-42.667v-281.6h8.533     c4.719,0,8.533-3.823,8.533-8.533V25.6C512,20.89,508.186,17.067,503.467,17.067z"/><path d="M426.667,196.267c0-14.114-11.486-25.6-25.6-25.6c-14.114,0-25.6,11.486-25.6,25.6c0,4.71,3.814,8.533,8.533,8.533     c4.719,0,8.533-3.823,8.533-8.533c0-4.702,3.823-8.533,8.533-8.533s8.533,3.831,8.533,8.508     c-0.205,2.645-6.861,9.762-13.653,14.532l-17.067,12.8c-2.935,2.21-4.139,6.042-2.97,9.523c1.152,3.49,4.412,5.837,8.09,5.837     h34.133c4.719,0,8.533-3.823,8.533-8.533s-3.814-8.533-8.533-8.533h-8.516C416.145,216.704,426.667,206.754,426.667,196.267z"/><path d="M332.8,204.8c4.71,0,8.533,3.831,8.533,8.533c0,4.71,3.814,8.533,8.533,8.533s8.533-3.823,8.533-8.533     c0-14.114-11.486-25.6-25.6-25.6c-14.114,0-25.6,11.486-25.6,25.6v34.133c0,14.114,11.486,25.6,25.6,25.6     c14.114,0,25.6-11.486,25.6-25.6c0-4.71-3.814-8.533-8.533-8.533s-8.533,3.823-8.533,8.533c0,4.702-3.823,8.533-8.533,8.533     c-4.71,0-8.533-3.831-8.533-8.533v-34.133C324.267,208.631,328.09,204.8,332.8,204.8z"/><path d="M281.6,273.067c4.719,0,8.533-3.823,8.533-8.533v-68.267c0-3.678-2.347-6.929-5.837-8.098     c-3.49-1.152-7.313,0.051-9.523,2.978L256,216.183l-18.773-25.037c-2.202-2.935-6.025-4.139-9.523-2.978     c-3.49,1.169-5.837,4.42-5.837,8.098v68.267c0,4.71,3.814,8.533,8.533,8.533s8.533-3.823,8.533-8.533v-42.667l10.24,13.653     c3.217,4.301,10.436,4.301,13.653,0l10.24-13.653v42.667C273.067,269.244,276.881,273.067,281.6,273.067z"/><path d="M162.133,221.867h34.133c4.719,0,8.533-3.823,8.533-8.533c0-4.71-3.814-8.533-8.533-8.533h-34.133     c-4.719,0-8.533,3.823-8.533,8.533C153.6,218.044,157.414,221.867,162.133,221.867z"/></g><g transform="matrix(0.1171872690320015 0 0 0.1171872690320015 254.9999975109148 110)" id="L1_6"><path d="M256.001,221.868c10.761,0,20.13-4.045,25.6-7.049c5.47,3.004,14.839,7.049,25.6,7.049     c15.889,0,33.647-9.028,41.233-20.864c0.751-1.135,18.5-28.262,18.5-73.003c0-32.939-26.795-59.733-59.733-59.733     c-9.651,0-18.449,3.541-25.6,7.305c-7.151-3.763-15.949-7.305-25.6-7.305c-32.939,0-59.733,26.795-59.733,59.733     c0,50.56,15.727,70.204,19.149,73.865C223.13,211.577,238.968,221.868,256.001,221.868z M256.001,85.335     c7.612,0,15.394,3.942,21.325,7.381c2.645,1.536,5.905,1.536,8.55,0c5.931-3.439,13.713-7.381,21.325-7.381     c23.526,0,42.667,19.14,42.667,42.667c0,39.27-15.488,63.317-15.718,63.659c-3.985,6.212-16.026,13.141-26.948,13.141     c-10.999,0-20.446-6.801-20.506-6.844c-1.51-1.126-3.302-1.69-5.094-1.69s-3.584,0.563-5.094,1.69     c-0.094,0.068-9.506,6.844-20.506,6.844c-10.871,0-22.221-7.091-27.383-13.756c-0.171-0.222-0.461-0.546-0.657-0.751     c-0.145-0.154-14.626-16.026-14.626-62.293C213.334,104.475,232.474,85.335,256.001,85.335z"/><path d="M274.288,55.596c1.596,2.662,4.42,4.139,7.322,4.139c1.493,0,3.012-0.393,4.386-1.22     c4.036-2.423,5.35-7.663,2.918-11.708l-25.6-42.667c-2.424-4.036-7.663-5.35-11.708-2.918c-4.036,2.423-5.35,7.663-2.918,11.708     L274.288,55.596z"/><path d="M300.929,54.367c0.597,0.196,6.042,1.946,13.244,1.946h0.009c10.206,0,19.081-3.482,25.643-10.052     c15.616-15.616,8.414-37.956,8.098-38.904c-0.853-2.543-2.85-4.54-5.393-5.393c-0.606-0.196-6.05-1.946-13.261-1.946     c-10.206,0-19.072,3.473-25.643,10.044c-15.616,15.625-8.405,37.956-8.098,38.904C296.38,51.517,298.377,53.514,300.929,54.367z      M315.691,22.128c3.345-3.345,7.91-5.043,13.577-5.043c1.203,0,2.338,0.077,3.345,0.196c0.521,4.599,0.282,11.776-4.855,16.913     c-3.345,3.345-7.919,5.052-13.577,5.052c-1.203,0-2.338-0.085-3.345-0.196C310.315,34.442,310.554,27.265,315.691,22.128z"/><path d="M486.401,238.935h-409.6c-14.114,0-25.6,11.486-25.6,25.6v34.133c0,4.71,3.823,8.533,8.533,8.533     s8.533-3.823,8.533-8.533v-34.133c0-4.702,3.831-8.533,8.533-8.533h25.6v42.667c0,4.71,3.823,8.533,8.533,8.533     s8.533-3.823,8.533-8.533v-42.667h221.867v42.667c0,4.71,3.823,8.533,8.533,8.533s8.533-3.823,8.533-8.533v-42.667h85.333v42.667     c0,4.71,3.823,8.533,8.533,8.533c4.71,0,8.533-3.823,8.533-8.533v-42.667h25.6c4.702,0,8.533,3.831,8.533,8.533v59.733h-25.6     c-4.71,0-8.533,3.823-8.533,8.533v76.8h-8.533c-4.71,0-8.533,3.823-8.533,8.533c0,4.71,3.823,8.533,8.533,8.533h25.6v59.733     c0,4.702-3.831,8.533-8.533,8.533H204.801v-42.667c0-4.71-3.823-8.533-8.533-8.533s-8.533,3.823-8.533,8.533v42.667h-17.067     v-42.667c0-4.71-3.823-8.533-8.533-8.533c-4.71,0-8.533,3.823-8.533,8.533v42.667h-17.067v-42.667     c0-4.71-3.823-8.533-8.533-8.533s-8.533,3.823-8.533,8.533v42.667h-76.8c-4.702,0-8.533-3.831-8.533-8.533v-34.133     c0-4.71-3.823-8.533-8.533-8.533c-4.71,0-8.533,3.823-8.533,8.533v34.133c0,14.114,11.486,25.6,25.6,25.6h426.667     c14.114,0,25.6-11.486,25.6-25.6v-59.733c0-11.085-8.789-17.067-17.067-17.067v-68.267h17.067     c8.277,0,17.067-5.982,17.067-17.067v-59.733C512.001,250.421,500.515,238.935,486.401,238.935z"/><path d="M332.801,426.668c4.71,0,8.533-3.823,8.533-8.533c0-4.71-3.823-8.533-8.533-8.533h-93.867v-68.267h119.467v128     c0,3.149,1.732,6.042,4.506,7.526c2.765,1.476,6.144,1.314,8.764-0.427l20.864-13.909l20.864,13.909     c1.434,0.956,3.081,1.434,4.736,1.434c1.382,0,2.765-0.333,4.028-1.007c2.773-1.485,4.506-4.378,4.506-7.526v-128h8.533     c4.71,0,8.533-3.823,8.533-8.533s-3.823-8.533-8.533-8.533h-409.6c-14.353,0-25.6,11.247-25.6,25.6v51.2     c0,14.114,11.486,25.6,25.6,25.6H332.801z M375.467,341.335h34.133v112.051l-12.331-8.218c-2.867-1.911-6.605-1.911-9.472,0     l-12.331,8.218V341.335z M102.401,341.335h119.467v68.267H102.401V341.335z M17.067,401.068v-51.2     c0-4.864,3.669-8.533,8.533-8.533h59.733v68.267H25.601C20.814,409.602,17.067,405.855,17.067,401.068z"/><path d="M179.201,358.401c-4.71,0-8.533,3.823-8.533,8.533v17.067c0,4.71,3.823,8.533,8.533,8.533s8.533-3.823,8.533-8.533     v-17.067C187.734,362.224,183.911,358.401,179.201,358.401z"/><path d="M145.067,358.401c-4.71,0-8.533,3.823-8.533,8.533v17.067c0,4.71,3.823,8.533,8.533,8.533     c4.71,0,8.533-3.823,8.533-8.533v-17.067C153.601,362.224,149.778,358.401,145.067,358.401z"/></g></defs><g fi:class="KUsePattern"><pattern id="pattern_L1_5" width="350" height="350" patternUnits="userSpaceOnUse"><use xlink:href="#L1_5" x="-350" y="-350"/><use xlink:href="#L1_5" x="0" y="-350"/><use xlink:href="#L1_5" x="350" y="-350"/><use xlink:href="#L1_5" x="-350" y="0"/><use xlink:href="#L1_5" x="0" y="0"/><use xlink:href="#L1_5" x="350" y="0"/><use xlink:href="#L1_5" x="-350" y="350"/><use xlink:href="#L1_5" x="0" y="350"/><use xlink:href="#L1_5" x="350" y="350"/></pattern><rect x="0" y="0" width="100%" height="100%" fill="url(#pattern_L1_5)"/></g><g fi:class="KUsePattern"><pattern id="pattern_L1_6" width="350" height="350" patternUnits="userSpaceOnUse"><use xlink:href="#L1_6" x="-350" y="-350"/><use xlink:href="#L1_6" x="0" y="-350"/><use xlink:href="#L1_6" x="350" y="-350"/><use xlink:href="#L1_6" x="-350" y="0"/><use xlink:href="#L1_6" x="0" y="0"/><use xlink:href="#L1_6" x="350" y="0"/><use xlink:href="#L1_6" x="-350" y="350"/><use xlink:href="#L1_6" x="0" y="350"/><use xlink:href="#L1_6" x="350" y="350"/></pattern><rect x="0" y="0" width="100%" height="100%" fill="url(#pattern_L1_6)"/></g><g fi:class="KUsePattern"><pattern id="pattern_L1_4" width="350" height="350" patternUnits="userSpaceOnUse"><use xlink:href="#L1_4" x="-350" y="-350"/><use xlink:href="#L1_4" x="0" y="-350"/><use xlink:href="#L1_4" x="350" y="-350"/><use xlink:href="#L1_4" x="-350" y="0"/><use xlink:href="#L1_4" x="0" y="0"/><use xlink:href="#L1_4" x="350" y="0"/><use xlink:href="#L1_4" x="-350" y="350"/><use xlink:href="#L1_4" x="0" y="350"/><use xlink:href="#L1_4" x="350" y="350"/></pattern><rect x="0" y="0" width="100%" height="100%" fill="url(#pattern_L1_4)"/></g></svg>