<?xml version="1.0" encoding="iso-8859-1"?>
<!-- Generator: Adobe Illustrator 19.0.0, SVG Export Plug-In . SVG Version: 6.00 Build 0)  -->
<svg version="1.1" id="Capa_1" xmlns="http://www.w3.org/2000/svg" xmlns:xlink="http://www.w3.org/1999/xlink" x="0px" y="0px"
	 viewBox="0 0 409.6 409.6" style="enable-background:new 0 0 409.6 409.6;" xml:space="preserve">
<g>
	<path style="fill:#44C4A1;" d="M96.612,329.463l-1.167-1.897c-0.374,0.637-0.724,1.293-1.148,1.886
		C95.06,329.514,95.832,329.52,96.612,329.463z"/>
	<path style="fill:#44C4A1;" d="M83.293,263.957l11.323-29.477c-6.103,7.435-11.652,16.948-14.305,28.805
		C81.313,263.405,82.307,263.643,83.293,263.957z"/>
	<path style="fill:#44C4A1;" d="M89.976,328.394c1.212-1.385,2.26-2.941,3.087-4.699l-10.326-16.777l12.436-19.69
		c-0.079-0.499-0.15-0.932-0.222-1.343l-0.197,0.041c-0.474,0.099-0.929-0.204-1.041-0.674c-0.877-3.675-2.434-6.994-4.488-9.698
		l-11.975,4.127l3.876-10.092c-1.542-0.432-3.092-0.562-4.592-0.251c-7.144,1.484-11.266,11.002-9.416,21.439
		c0.08,0.452-0.199,0.868-0.631,0.996C68.515,298.904,76.284,322.914,89.976,328.394z"/>
	<path style="fill:#44C4A1;" d="M106.252,269.687l-11.215,3.866c1.573,2.392,2.835,5.064,3.749,7.954L106.252,269.687z"/>
	<path style="fill:#44C4A1;" d="M98.901,333.183c-1.115,0.193-2.229,0.36-3.329,0.36c-1.525,0-3.028-0.247-4.519-0.619
		c-3.675,3.198-8.284,4.875-13.86,4.875c-2.422,0-5.042-0.346-7.808-0.953c-0.118,0.394-0.445,0.691-0.859,0.727
		c-1.801,0.163-6.39,0.436-7.333-0.879c-1.089-1.52,0.036-6.396,1.681-7.284c1.425-0.768,5.43,1.488,6.978,2.424
		c0.373,0.227,0.555,0.666,0.457,1.092l-0.005,0.02c6.716,1.458,12.134,0.843,16.245-1.718
		c-14.403-7.532-22.004-31.516-23.973-38.617l-0.249,0.052c-0.488,0.1-0.975-0.219-1.063-0.71
		c-2.369-13.115,3.246-25.306,12.852-28.152c3.808-19.372,14.413-33.101,24.143-42.043c-24.626,7.277-67.181,21.834-80.577,38.914
		c-10.792,13.759-15.64,47.392-17.614,67.015c-0.803,7.992,5.475,14.891,13.507,14.891h91.108L98.901,333.183z"/>
	<path style="fill:#44C4A1;" d="M113.469,217.57l2.892-0.789c0,0-0.992,0.244-2.758,0.701
		C113.559,217.509,113.514,217.541,113.469,217.57z"/>
	<polygon style="fill:#44C4A1;" points="116.361,216.78 116.368,216.849 116.368,216.801 	"/>
	<path style="fill:#44C4A1;" d="M302.212,260.673c-13.646-17.399-57.595-32.198-81.979-39.332l0.949,2.469
		c8.754,10.47,14.13,24.553,16.14,42.015l5.322,13.855l-4.5-1.551c0.133,5.207,0.049,10.627-0.331,16.335l0.244,0.022
		c0.407,0.036,0.707,0.394,0.672,0.8l-0.512,5.854c5.825,2.859,9.843,8.829,9.843,15.755c0,10.357-8.969,18.619-19.564,17.445
		c-2.455-0.271-4.734-1.116-6.788-2.318l-6.496,10.557h91.108c8.033,0,14.311-6.899,13.507-14.891
		C317.853,308.065,313.004,274.433,302.212,260.673z"/>
	<path style="fill:#44C4A1;" d="M231.598,293.921l0.29,0.026c0.425-6.458,0.503-12.414,0.27-17.88l-18.514-6.381l16.98,26.887
		l0.174-1.979C230.833,294.188,231.192,293.887,231.598,293.921z"/>
	<path style="fill:#44C4A1;" d="M220.198,221.332c-0.591-0.173-1.129-0.325-1.695-0.49c0.011,0.012,0.023,0.025,0.034,0.037
		L220.198,221.332z"/>
</g>
<g>
	<polygon style="fill:#E1E6E9;" points="153.089,272.272 144.502,253.166 121.993,269.64 129.767,342.579 147.794,342.579 
		142.499,292.22 	"/>
	<polygon style="fill:#E1E6E9;" points="175.394,253.166 166.806,272.272 177.396,292.22 172.101,342.579 190.13,342.579 
		197.903,269.64 	"/>
</g>
<g>
	<path style="fill:#F6C358;" d="M223.158,129.796c0,9.352-1.501,18.874-4.123,28.045c0.686,0.411,1.416,0.721,2.197,0.883
		c6.527,1.358,13.773-6.937,16.183-18.528c2.41-11.589-0.927-22.085-7.454-23.442c-1.722-0.358-3.49-0.01-5.209,0.859l-2.329,1.6
		C222.857,122.603,223.158,126.095,223.158,129.796z"/>
	<path style="fill:#F6C358;" d="M97.449,119.385l-0.021-0.027l-2.975-2.044c-1.5-0.622-3.027-0.871-4.518-0.561
		c-6.527,1.357-9.865,11.854-7.454,23.442c2.41,11.591,9.655,19.886,16.183,18.528c0.782-0.162,1.511-0.473,2.197-0.883
		c-2.622-9.171-4.122-18.693-4.122-28.045C96.738,126.157,97.029,122.723,97.449,119.385z"/>
</g>
<path style="fill:#FCD462;" d="M159.947,216.605c16.37,0,31.238-10.019,42.464-24.877c7.325-9.693,13.062-21.427,16.623-33.888
	c2.622-9.171,4.123-18.693,4.123-28.045c0-3.701-0.301-7.193-0.735-10.584l-0.212,0.146l-4.887,5.933l-16.12-31.189h-82.77
	l-16.119,31.189l-4.866-5.906c-0.42,3.338-0.711,6.772-0.711,10.41c0,9.352,1.5,18.874,4.122,28.045
	c3.562,12.462,9.299,24.194,16.624,33.887C128.711,206.584,143.578,216.605,159.947,216.605z"/>
<g>
	<path style="fill:#64798A;" d="M97.449,119.385l4.866,5.906l16.119-31.189H96.345c-2.875,11.538-2.046,23.107-2.046,23.107
		l0.154,0.105l2.975,2.044L97.449,119.385z"/>
	<path style="fill:#64798A;" d="M201.204,94.103l16.12,31.189l4.887-5.933l0.212-0.146l2.329-1.6l0.587-0.403
		c0,0,0.849-11.914-2.182-23.621v0.514H201.204z"/>
</g>
<path style="fill:#44C4A1;" d="M201.204,94.103h21.954v-0.514V17.265c-42.602-23.02-85.203-23.02-127.803,0l-0.001,76.837h0.991
	h22.089H201.204z M159.256,15.576c17.383,0,31.476,14.092,31.476,31.477c0,17.382-14.092,31.475-31.476,31.475
	c-17.383,0-31.475-14.093-31.475-31.475C127.781,29.668,141.873,15.576,159.256,15.576z"/>
<path style="fill:#FFFFFF;" d="M159.256,78.528c17.383,0,31.476-14.093,31.476-31.475c0-17.385-14.092-31.477-31.476-31.477
	c-17.383,0-31.475,14.092-31.475,31.477C127.781,64.435,141.873,78.528,159.256,78.528z M138.327,40.57h14.448V26.121h6.481h6.481
	V40.57h14.448v12.962h-14.448v14.45h-6.481h-6.481v-14.45h-14.448V40.57z"/>
<polygon style="fill:#E56353;" points="152.774,67.982 159.256,67.982 159.256,26.121 152.774,26.121 152.774,40.57 138.327,40.57 
	138.327,53.532 152.774,53.532 "/>
<polygon style="fill:#D15241;" points="165.737,67.982 165.737,53.532 180.185,53.532 180.185,40.57 165.737,40.57 165.737,26.121 
	159.256,26.121 159.256,67.982 "/>
<g>
	<path style="fill:#3EA69B;" d="M89.227,275.554c-0.759-0.999-1.575-1.928-2.466-2.742c-1.79-1.635-3.704-2.681-5.633-3.223
		l-3.876,10.092L89.227,275.554z"/>
	<path style="fill:#3EA69B;" d="M93.063,323.695c5.29-11.241,3.339-28.762,2.11-36.467l-12.436,19.69L93.063,323.695z"/>
	<path style="fill:#3EA69B;" d="M116.368,216.849l-0.007-0.069l-2.892,0.789c-4.994,3.268-12.229,8.839-18.853,16.91l-11.323,29.477
		c2.617,0.83,5.159,2.313,7.494,4.446c1.61,1.468,2.995,3.245,4.25,5.15l11.215-3.866l-7.466,11.82
		c0.263,0.829,0.567,1.635,0.77,2.493c0.113,0.484-0.206,0.969-0.693,1.073c1.33,7.457,4.29,29.345-3.418,42.492l1.167,1.897
		c3.992-0.282,8.19-2.12,12.553-5.506c-0.229-0.352-0.232-0.804,0.017-1.143c1.07-1.457,3.904-5.078,5.515-4.913
		c1.859,0.19,4.769,4.26,4.345,6.082c-0.367,1.577-4.71,3.084-6.435,3.624c-0.418,0.131-0.867-0.024-1.121-0.378l-0.036-0.052
		c-4.266,3.283-8.46,5.298-12.548,6.006l5.783,9.396h25.082l-7.773-72.939L116.368,216.849z"/>
	<path style="fill:#3EA69B;" d="M220.458,222.855c0.26,0.297,0.469,0.652,0.723,0.956l-0.949-2.469h-0.001l-0.034-0.009
		l-1.661-0.453C219.178,221.538,219.82,222.123,220.458,222.855z"/>
	<path style="fill:#3EA69B;" d="M213.056,318.918c-1.182-10.564,7.019-19.508,17.326-19.574l0.242-2.77l-16.98-26.887l18.514,6.381
		c-1.675-39.374-18.801-54.023-28.633-59.204l-5.623,52.776l-7.773,72.939h25.081l6.496-10.557
		C217.039,329.29,213.679,324.502,213.056,318.918z"/>
	<path style="fill:#3EA69B;" d="M242.644,279.681l-5.322-13.855c0.452,3.925,0.714,8.038,0.822,12.304L242.644,279.681z"/>
</g>
<polygon style="fill:#E56353;" points="166.806,272.272 175.394,253.166 159.947,241.863 144.502,253.166 153.089,272.272 
	142.499,292.22 147.794,342.579 159.947,342.579 172.101,342.579 177.396,292.22 "/>
<path style="fill:#2F4859;" d="M203.527,216.854l-0.002,0.01c9.831,5.181,26.958,19.83,28.633,59.204
	c0.233,5.466,0.155,11.422-0.27,17.88l5.924,0.517c0.38-5.708,0.464-11.128,0.331-16.335c-0.109-4.266-0.371-8.379-0.822-12.304
	c-2.011-17.462-7.386-31.545-16.14-42.015c-0.254-0.304-0.463-0.658-0.723-0.956c-0.638-0.732-1.281-1.316-1.921-1.976
	c-0.011-0.012-0.023-0.025-0.034-0.037c-5.633-5.797-11.236-9.019-15.224-10.699c0.176,1.983,0.252,4.229,0.25,6.658
	C203.528,216.818,203.527,216.837,203.527,216.854z"/>
<path style="fill:#E1E6E9;" d="M94.952,285.885c0.072,0.411,0.142,0.844,0.222,1.343c1.229,7.705,3.18,25.226-2.11,36.467
	c-0.827,1.758-1.875,3.314-3.087,4.699c-13.692-5.48-21.461-29.491-23.486-36.621c-0.023,0.006-0.032,0.034-0.057,0.038
	l-3.856,0.801c1.969,7.1,9.571,31.085,23.973,38.617c-4.11,2.561-9.529,3.175-16.245,1.718l-0.888,3.847
	c-0.006,0.021-0.025,0.031-0.031,0.053c2.766,0.607,5.386,0.953,7.808,0.953c5.576,0,10.185-1.677,13.86-4.875
	c1.491,0.372,2.994,0.619,4.519,0.619c1.099,0,2.213-0.168,3.329-0.36c4.088-0.708,8.282-2.722,12.548-6.006L109.178,324
	c-0.009-0.014-0.005-0.031-0.013-0.043c-4.362,3.386-8.561,5.223-12.553,5.506c-0.78,0.057-1.552,0.051-2.315-0.012
	c0.424-0.593,0.774-1.248,1.148-1.886c7.708-13.148,4.748-35.035,3.418-42.492h-0.002L94.952,285.885z"/>
<path style="fill:#2F4859;" d="M74.117,263.802c-9.606,2.846-15.221,15.037-12.852,28.152c0.089,0.492,0.575,0.81,1.063,0.71
	l0.249-0.052l3.856-0.801c0.025-0.004,0.034-0.032,0.057-0.038c0.432-0.127,0.711-0.544,0.631-0.996
	c-1.85-10.437,2.272-19.955,9.416-21.439c1.5-0.311,3.05-0.181,4.592,0.251c1.928,0.542,3.843,1.588,5.633,3.223
	c0.89,0.814,1.706,1.743,2.466,2.742c2.054,2.704,3.611,6.023,4.488,9.698c0.112,0.47,0.567,0.773,1.041,0.674l0.197-0.041
	l3.909-0.812h0.002c0.487-0.104,0.806-0.589,0.693-1.073c-0.203-0.858-0.506-1.664-0.77-2.493c-0.914-2.891-2.175-5.562-3.749-7.954
	c-1.255-1.906-2.64-3.682-4.25-5.15c-2.335-2.133-4.877-3.615-7.494-4.446c-0.986-0.313-1.979-0.551-2.982-0.672
	c2.653-11.857,8.202-21.37,14.305-28.805c6.624-8.071,13.86-13.642,18.853-16.91c0.044-0.029,0.09-0.061,0.134-0.089
	c1.027-0.669,1.981-1.268,2.782-1.743c0.023-2.632,0.154-5.003,0.41-7.042c-1.521,0.737-9.617,4.866-18.535,13.063
	C88.53,230.701,77.925,244.43,74.117,263.802z"/>
<g>
	<path style="fill:#64798A;" d="M111.449,327.177l0.036,0.052c0.254,0.354,0.703,0.509,1.121,0.378
		c1.725-0.54,6.068-2.046,6.435-3.624c0.424-1.822-2.487-5.892-4.345-6.082c-1.611-0.165-4.445,3.456-5.515,4.913
		c-0.249,0.339-0.246,0.791-0.017,1.143c0.008,0.012,0.004,0.028,0.013,0.043L111.449,327.177z"/>
	<path style="fill:#64798A;" d="M70.306,332.947l0.005-0.02c0.098-0.426-0.084-0.865-0.457-1.092
		c-1.548-0.935-5.553-3.192-6.978-2.424c-1.645,0.888-2.77,5.765-1.681,7.284c0.944,1.315,5.533,1.042,7.333,0.879
		c0.413-0.036,0.741-0.333,0.859-0.727c0.006-0.022,0.025-0.032,0.031-0.053L70.306,332.947z"/>
</g>
<path style="fill:#EBF0F3;" d="M231.598,293.921c-0.406-0.035-0.765,0.267-0.8,0.673l-0.174,1.979l-0.242,2.77
	c-10.307,0.067-18.508,9.011-17.326,19.574c0.623,5.584,3.983,10.373,8.651,13.105c2.053,1.202,4.333,2.046,6.788,2.318
	c10.595,1.173,19.564-7.088,19.564-17.445c0-6.925-4.019-12.896-9.843-15.755l0.512-5.854c0.035-0.406-0.265-0.763-0.672-0.8
	l-0.244-0.022l-5.924-0.517L231.598,293.921z M241.138,316.895c0,5.876-4.763,10.638-10.638,10.638s-10.639-4.762-10.639-10.638
	c0-5.876,4.764-10.639,10.639-10.639S241.138,311.019,241.138,316.895z"/>
<path style="fill:#D5D6DB;" d="M230.501,306.256c-5.875,0-10.639,4.763-10.639,10.639c0,5.876,4.764,10.638,10.639,10.638
	s10.638-4.762,10.638-10.638C241.138,311.019,236.376,306.256,230.501,306.256z M239.655,316.895c0,5.055-4.099,9.154-9.154,9.154
	c-5.057,0-9.156-4.1-9.156-9.154c0-5.056,4.099-9.155,9.156-9.155C235.556,307.74,239.655,311.838,239.655,316.895z"/>
<path style="fill:#EBF0F3;" d="M230.501,307.74c-5.057,0-9.156,4.099-9.156,9.155c0,5.055,4.099,9.154,9.156,9.154
	c5.055,0,9.154-4.1,9.154-9.154C239.655,311.838,235.556,307.74,230.501,307.74z M230.501,318.145c-0.691,0-1.251-0.559-1.251-1.25
	c0-0.69,0.56-1.252,1.251-1.252c0.691,0,1.25,0.562,1.25,1.252C231.751,317.586,231.191,318.145,230.501,318.145z"/>
<circle style="fill:#64798A;" cx="230.502" cy="316.892" r="1.249"/>
<g>
	<path style="fill:#EBF0F3;" d="M116.368,216.801c0,0.015,0,0.033,0,0.033l5.626,52.806l22.509-16.474l15.446-11.303l-42.464-36.838
		c-0.302,1.017-0.515,2.291-0.689,3.672c-0.255,2.039-0.387,4.41-0.41,7.042C116.383,216.099,116.368,216.432,116.368,216.801z"/>
	<path style="fill:#EBF0F3;" d="M159.947,241.863l15.447,11.303l22.509,16.474l5.623-52.776l0.002-0.01c0,0,0.001-0.035,0.001-0.053
		c0.003-2.429-0.074-4.675-0.25-6.658c-0.178-2.009-0.459-3.747-0.866-5.118L159.947,241.863z"/>
</g>
<path style="fill:#F6C358;" d="M202.412,205.024v-13.296c-11.227,14.857-26.095,24.877-42.464,24.877
	c-16.37,0-31.237-10.021-42.464-24.878v13.297l42.464,36.838L202.412,205.024z"/>
<path style="fill:#EBF0F3;" d="M408.902,313.581c-4.773-37.873-35.356-68.455-73.228-73.228
	c-55.583-7.006-102.327,39.738-95.322,95.322c4.773,37.871,35.356,68.455,73.228,73.227
	C369.163,415.908,415.907,369.163,408.902,313.581z"/>
<path style="fill:#E56353;" d="M299.307,272.435c-17.462,0-31.618,14.156-31.618,31.618c0,24.038,56.931,72.76,56.94,72.766v-91.644
	C318.863,277.457,309.682,272.435,299.307,272.435z"/>
<path style="fill:#D15241;" d="M349.949,272.435c-10.377,0-19.557,5.022-25.321,12.741l0,0v91.644v0.001
	c0,0,56.938-48.727,56.938-72.767C381.566,286.591,367.411,272.435,349.949,272.435z"/>
<polygon style="fill:#FFFFFF;" points="312.691,359.718 300.237,313.278 292.365,328.586 253.147,328.586 253.147,324.381 
	289.803,324.381 301.477,301.674 312.748,343.704 327.695,289.536 336.495,332.769 354.799,291.413 366.535,324.381 
	396.108,324.381 396.108,328.586 363.571,328.586 354.373,302.758 335,346.525 327.079,307.587 "/>
<g>
</g>
<g>
</g>
<g>
</g>
<g>
</g>
<g>
</g>
<g>
</g>
<g>
</g>
<g>
</g>
<g>
</g>
<g>
</g>
<g>
</g>
<g>
</g>
<g>
</g>
<g>
</g>
<g>
</g>
</svg>
