<?xml version="1.0" encoding="iso-8859-1"?>
<!-- Generator: Adobe Illustrator 18.1.1, SVG Export Plug-In . SVG Version: 6.00 Build 0)  -->
<svg xmlns="http://www.w3.org/2000/svg" xmlns:xlink="http://www.w3.org/1999/xlink" version="1.1" id="Capa_1" x="0px" y="0px" viewBox="0 0 290 290" style="enable-background:new 0 0 290 290;" xml:space="preserve" width="512px" height="512px">
<path color-rendering="auto" image-rendering="auto" shape-rendering="auto" color-interpolation="sRGB" d="M98.568,23.569  c-0.887-0.019-1.781-0.011-2.678,0.031c-4.304,0.201-8.706,1.159-13.127,3.369c-2.469,1.235-3.47,4.237-2.236,6.707L89.41,51.44  l-8.883,17.766c-1.234,2.471-0.231,5.474,2.24,6.708c1.407,0.703,3.062,0.702,4.469-0.001c8.211-4.106,16.551-2.121,26.551,0.379  c7.944,1.986,16.941,4.221,26.213,2.133v9.633L93.143,106.8c-1.897,0.759-3.142,2.597-3.143,4.641v45H5c-2.761,0-5,2.239-5,5v100  c0,2.761,2.239,5,5,5h280c2.761,0,5-2.239,5-5v-100c0-2.761-2.239-5-5-5h-85v-45c-0.001-2.044-1.245-3.881-3.143-4.641L150,88.057  V31.44c-0.001-2.762-2.241-5-5.003-4.998c-0.775,0-1.54,0.181-2.234,0.528c-8.211,4.106-16.551,2.121-26.551-0.379  C110.744,25.223,104.78,23.703,98.568,23.569L98.568,23.569z M97.842,33.56c0.662,0,1.328,0.021,2,0.066  c4.361,0.295,8.945,1.416,13.945,2.666c7.944,1.986,16.941,4.221,26.213,2.133V68.1c-7.335,2.498-14.906,0.711-23.787-1.51  c-6.671-1.668-14.088-3.503-21.781-2.832l5.041-10.082c0.703-1.407,0.703-3.063,0-4.471L91.99,34.243  C93.913,33.786,95.856,33.565,97.842,33.56L97.842,33.56z M145.002,96.827l45,18v45.797c-0.261,1.583,0.252,3.194,1.381,4.334  c0.039,0.042,0.079,0.083,0.119,0.123c1.138,1.113,2.738,1.618,4.309,1.359h84.191v90H170v-35c0-13.333-12.5-20-25-20  s-25,6.667-25,20v35H10.002v-90h85c2.761,0,5-2.239,5-5v-46.613L145.002,96.827z M115,126.441c-2.761,0-5,2.239-5,5v20  c0,2.761,2.239,5,5,5h20c2.761,0,5-2.239,5-5v-20c0-2.761-2.239-5-5-5C135,126.441,115,126.441,115,126.441z M155,126.441  c-2.761,0-5,2.239-5,5v20c0,2.761,2.239,5,5,5h20c2.761,0,5-2.239,5-5v-20c0-2.761-2.239-5-5-5H155z M120,136.441h10v10h-10V136.441  z M160,136.441h10v10h-10V136.441z M115,166.441c-2.761,0-5,2.239-5,5v20c0,2.761,2.239,5,5,5h20c2.761,0,5-2.239,5-5v-20  c0-2.761-2.239-5-5-5H115z M155,166.441c-2.761,0-5,2.239-5,5v20c0,2.761,2.239,5,5,5h20c2.761,0,5-2.239,5-5v-20  c0-2.761-2.239-5-5-5H155z M25,176.441c-2.761,0-5,2.239-5,5v20c0,2.761,2.239,5,5,5h20c2.761,0,5-2.239,5-5v-20  c0-2.761-2.239-5-5-5H25z M65,176.441c-2.761,0-5,2.239-5,5v20c0,2.761,2.239,5,5,5h20c2.761,0,5-2.239,5-5v-20c0-2.761-2.239-5-5-5  H65z M120,176.441h10v10h-10V176.441z M160,176.441h10v10h-10V176.441z M205,176.441c-2.761,0-5,2.239-5,5v20c0,2.761,2.239,5,5,5  h20c2.761,0,5-2.239,5-5v-20c0-2.761-2.239-5-5-5H205z M245,176.441c-2.761,0-5,2.239-5,5v20c0,2.761,2.239,5,5,5h20  c2.761,0,5-2.239,5-5v-20c0-2.761-2.239-5-5-5H245z M30,186.441h10v10H30V186.441z M70,186.441h10v10H70V186.441z M210,186.441h10  v10h-10V186.441z M250,186.441h10v10h-10V186.441z M145,211.441c7.5,0,15,3.333,15,10v35h-30v-35  C130,214.774,137.5,211.441,145,211.441z M25,216.441c-2.761,0-5,2.239-5,5v20c0,2.761,2.239,5,5,5h20c2.761,0,5-2.239,5-5v-20  c0-2.761-2.239-5-5-5H25z M65,216.441c-2.761,0-5,2.239-5,5v20c0,2.761,2.239,5,5,5h20c2.761,0,5-2.239,5-5v-20c0-2.761-2.239-5-5-5  H65z M205,216.441c-2.761,0-5,2.239-5,5v20c0,2.761,2.239,5,5,5h20c2.761,0,5-2.239,5-5v-20c0-2.761-2.239-5-5-5H205z M245,216.441  c-2.761,0-5,2.239-5,5v20c0,2.761,2.239,5,5,5h20c2.761,0,5-2.239,5-5v-20c0-2.761-2.239-5-5-5H245z M30,226.441h10v10H30V226.441z   M70,226.441h10v10H70V226.441z M210,226.441h10v10h-10V226.441z M250,226.441h10v10h-10V226.441z" fill="#FFFFFF"/>
<g>
</g>
<g>
</g>
<g>
</g>
<g>
</g>
<g>
</g>
<g>
</g>
<g>
</g>
<g>
</g>
<g>
</g>
<g>
</g>
<g>
</g>
<g>
</g>
<g>
</g>
<g>
</g>
<g>
</g>
</svg>
