<svg xmlns="http://www.w3.org/2000/svg" xmlns:xlink="http://www.w3.org/1999/xlink" xmlns:fi="http://pattern.flaticon.com/" x="0" y="0" width="700" height="350" viewBox="0 0 700 350"><rect x="0px" y="0px" width="100%" height="100%" opacity="1" fill="#ffffff"/><defs><g transform="matrix(0.1171875 0 0 0.1171875 155 90)" id="L1_0"><path d="M377.078,458.898c-17.828,0-37.922-3.766-59.703-11.344     c-50.266-17.484-104.203-53.367-151.883-101.047S81.93,244.891,64.445,194.625C46.289,142.422,50.031,99.937,74.984,74.984     c24.945-24.945,67.43-28.703,119.641-10.539c50.266,17.484,104.203,53.367,151.883,101.047s83.562,101.617,101.047,151.883     c18.156,52.203,14.414,94.687-10.539,119.641l0,0l0,0C422.476,451.555,401.984,458.898,377.078,458.898z M134.906,69.055     c-20.539,0-37.141,5.773-48.609,17.242c-20.383,20.375-22.773,56.984-6.742,103.07c16.711,48.031,51.242,99.82,97.25,145.828     s97.797,80.539,145.828,97.25c46.094,16.023,82.687,13.633,103.07-6.742l0,0c20.383-20.375,22.773-56.984,6.742-103.07     c-16.711-48.031-51.242-99.82-97.25-145.828s-97.797-80.539-145.828-97.25C169.211,72.547,150.867,69.055,134.906,69.055z" fill="#ffcd00"/><path d="M134.922,458.898c-24.906,0-45.398-7.344-59.937-21.883     c-24.953-24.953-28.695-67.437-10.539-119.641c17.484-50.266,53.367-104.203,101.047-151.883S267.109,81.93,317.375,64.445     c52.211-18.164,94.695-14.406,119.641,10.539l0,0l0,0c24.953,24.953,28.695,67.437,10.539,119.641     c-17.484,50.266-53.367,104.203-101.047,151.883S244.891,430.07,194.625,447.555C172.844,455.133,152.75,458.898,134.922,458.898     z M377.094,69.055c-15.969,0-34.305,3.492-54.461,10.5c-48.031,16.711-99.82,51.242-145.828,97.25s-80.539,97.797-97.25,145.828     c-16.031,46.086-13.641,82.695,6.742,103.07c20.375,20.391,56.992,22.766,103.07,6.742c48.031-16.711,99.82-51.242,145.828-97.25     s80.539-97.797,97.25-145.828c16.031-46.086,13.641-82.695-6.742-103.07l0,0C414.234,74.828,397.633,69.055,377.094,69.055z" fill="#ff9100"/><path d="M256,512c-71.773,0-128-112.445-128-256S184.227,0,256,0s128,112.445,128,256S327.773,512,256,512     z M256,16c-60.711,0-112,109.906-112,240s51.289,240,112,240s112-109.906,112-240S316.711,16,256,16z" fill="#ff4f19"/><circle cx="255" cy="256" r="55" fill="#ff4f19"/><circle cx="269" cy="242" r="19" fill="#ff8c62"/><path d="M256,384C112.445,384,0,327.773,0,256s112.445-128,256-128s256,56.227,256,128     S399.555,384,256,384z M256,144c-130.094,0-240,51.289-240,112s109.906,112,240,112s240-51.289,240-112S386.094,144,256,144z" fill="#e3001e"/></g><g transform="matrix(0.1171875 0 0 0.1171875 31 211)" id="L1_1"><path d="M448.109,0h-352c-13.234,0-24,10.766-24,24v464c0,13.234,10.766,24,24,24h352    c13.234,0,24-10.766,24-24V24C472.109,10.766,461.344,0,448.109,0z" fill="#4bb9ec"/><path d="M120.109,0H87.891c-13.234,0-24,10.766-24,24v464c0,13.234,10.766,24,24,24h32.219V0H120.109z" fill="#009bca"/><path d="M376.109,332h-0.572c-0.071-0.272-0.084-0.545-0.17-0.816l-45.279-143.383    c5.679-0.948,10.021-5.85,10.021-11.801c0-6.629-5.375-12-12-12h-64c-6.625,0-12,5.371-12,12c0,5.951,4.343,10.853,10.021,11.801    l-45.279,143.383c-0.086,0.271-0.1,0.544-0.17,0.816h-0.572c-6.625,0-12,5.371-12,12s5.375,12,12,12h32c6.625,0,12-5.371,12-12    c0-5.951-4.342-10.853-10.021-11.801L258.994,304h74.231l8.905,28.199c-5.678,0.948-10.021,5.85-10.021,11.801    c0,6.629,5.375,12,12,12h32c6.625,0,12-5.371,12-12S382.734,332,376.109,332z M269.099,272l26.269-83.184    c0.086-0.271,0.1-0.544,0.17-0.816h1.144c0.071,0.272,0.084,0.545,0.17,0.816L323.12,272H269.099z" fill="#3482ac"/><path d="M80.109,64H47.891c-4.422,0-8-3.582-8-8s3.578-8,8-8H80.11c4.422,0,8,3.582,8,8     S84.531,64,80.109,64z" fill="#5c546a"/><path d="M80.109,104H47.891c-4.422,0-8-3.582-8-8s3.578-8,8-8H80.11c4.422,0,8,3.582,8,8     C88.109,100.418,84.531,104,80.109,104z" fill="#5c546a"/><path d="M80.109,144H47.891c-4.422,0-8-3.582-8-8s3.578-8,8-8H80.11c4.422,0,8,3.582,8,8     S84.531,144,80.109,144z" fill="#5c546a"/><path d="M80.109,184H47.891c-4.422,0-8-3.582-8-8s3.578-8,8-8H80.11c4.422,0,8,3.582,8,8     S84.531,184,80.109,184z" fill="#5c546a"/><path d="M80.109,224H47.891c-4.422,0-8-3.582-8-8s3.578-8,8-8H80.11c4.422,0,8,3.582,8,8     S84.531,224,80.109,224z" fill="#5c546a"/><path d="M80.109,264H47.891c-4.422,0-8-3.582-8-8s3.578-8,8-8H80.11c4.422,0,8,3.582,8,8     S84.531,264,80.109,264z" fill="#5c546a"/><path d="M80.109,304H47.891c-4.422,0-8-3.582-8-8s3.578-8,8-8H80.11c4.422,0,8,3.582,8,8     S84.531,304,80.109,304z" fill="#5c546a"/><path d="M80.109,344H47.891c-4.422,0-8-3.582-8-8s3.578-8,8-8H80.11c4.422,0,8,3.582,8,8     S84.531,344,80.109,344z" fill="#5c546a"/><path d="M80.109,384H47.891c-4.422,0-8-3.582-8-8s3.578-8,8-8H80.11c4.422,0,8,3.582,8,8     S84.531,384,80.109,384z" fill="#5c546a"/><path d="M80.109,424H47.891c-4.422,0-8-3.582-8-8s3.578-8,8-8H80.11c4.422,0,8,3.582,8,8     S84.531,424,80.109,424z" fill="#5c546a"/><path d="M80.109,464H47.891c-4.422,0-8-3.582-8-8s3.578-8,8-8H80.11c4.422,0,8,3.582,8,8     S84.531,464,80.109,464z" fill="#5c546a"/><path d="M120.109,496c-4.422,0-8-3.582-8-8V24c0-4.418,3.578-8,8-8s8,3.582,8,8v464     C128.109,492.418,124.531,496,120.109,496z" fill="#3482ac"/></g><g transform="matrix(0.1171875 0 0 0.1171875 172 -1)" id="L1_2"><path d="M304.945,144l6.211-12.422c1.242-2.477,1.109-5.422-0.352-7.781    c-1.46-2.36-4.031-3.797-6.804-3.797h-48c-4.422,0-8,3.578-8,8v32c0,4.422,3.578,8,8,8h48c2.773,0,5.344-1.438,6.805-3.797    s1.594-5.305,0.352-7.781L304.945,144z" fill="#ff4f19"/><path d="M256,192c-4.422,0-8-3.578-8-8v-64c0-4.422,3.578-8,8-8s8,3.578,8,8v64     C264,188.422,260.422,192,256,192z" fill="#5c546a"/><rect x="360px" y="272px" width="128px" height="112px" fill="#868491"/><rect x="24px" y="272px" width="128px" height="112px" fill="#868491"/><path d="M344,280h144c4.422,0,8-3.578,8-8s-3.578-8-8-8H344c-4.422,0-8,3.578-8,8S339.578,280,344,280z" fill="#b4b6bc"/><path d="M168,280H24c-4.422,0-8-3.578-8-8s3.578-8,8-8h144c4.422,0,8,3.578,8,8S172.422,280,168,280z" fill="#b4b6bc"/><g><path d="M384,368c4.422,0,8-3.578,8-8v-8c0-4.422-3.578-8-8-8s-8,3.578-8,8v8      C376,364.422,379.578,368,384,368z" fill="#5c546a"/><path d="M408,368c4.422,0,8-3.578,8-8v-8c0-4.422-3.578-8-8-8s-8,3.578-8,8v8      C400,364.422,403.578,368,408,368z" fill="#5c546a"/><path d="M432,368c4.422,0,8-3.578,8-8v-8c0-4.422-3.578-8-8-8s-8,3.578-8,8v8      C424,364.422,427.578,368,432,368z" fill="#5c546a"/><path d="M456,368c4.422,0,8-3.578,8-8v-8c0-4.422-3.578-8-8-8s-8,3.578-8,8v8      C448,364.422,451.578,368,456,368z" fill="#5c546a"/><path d="M384,336c4.422,0,8-3.578,8-8v-24c0-4.422-3.578-8-8-8s-8,3.578-8,8v24      C376,332.422,379.578,336,384,336z" fill="#5c546a"/><path d="M408,336c4.422,0,8-3.578,8-8v-24c0-4.422-3.578-8-8-8s-8,3.578-8,8v24      C400,332.422,403.578,336,408,336z" fill="#5c546a"/><path d="M432,336c4.422,0,8-3.578,8-8v-24c0-4.422-3.578-8-8-8s-8,3.578-8,8v24      C424,332.422,427.578,336,432,336z" fill="#5c546a"/><path d="M456,336c4.422,0,8-3.578,8-8v-24c0-4.422-3.578-8-8-8s-8,3.578-8,8v24      C448,332.422,451.578,336,456,336z" fill="#5c546a"/></g><path d="M152,244.266 360,244.266 256,188.804z" fill="#b4b6bc"/><rect x="159px" y="248px" width="192px" height="144px" fill="#868491"/><path d="M256,400c-4.422,0-8-3.578-8-8V248c0-4.422,3.578-8,8-8s8,3.578,8,8v144     C264,396.422,260.422,400,256,400z" fill="#b4b6bc"/><path d="M224,400c-4.422,0-8-3.578-8-8V248c0-4.422,3.578-8,8-8s8,3.578,8,8v144     C232,396.422,228.422,400,224,400z" fill="#b4b6bc"/><path d="M192,400c-4.422,0-8-3.578-8-8V248c0-4.422,3.578-8,8-8s8,3.578,8,8v144     C200,396.422,196.422,400,192,400z" fill="#b4b6bc"/><path d="M320,400c-4.422,0-8-3.578-8-8V248c0-4.422,3.578-8,8-8s8,3.578,8,8v144     C328,396.422,324.422,400,320,400z" fill="#b4b6bc"/><path d="M288,400c-4.422,0-8-3.578-8-8V248c0-4.422,3.578-8,8-8s8,3.578,8,8v144     C296,396.422,292.422,400,288,400z" fill="#b4b6bc"/><path d="M352,400c-4.422,0-8-3.578-8-8V248c0-4.422,3.578-8,8-8s8,3.578,8,8v144     C360,396.422,356.422,400,352,400z" fill="#b4b6bc"/><path d="M160,400c-4.422,0-8-3.578-8-8V248c0-4.422,3.578-8,8-8s8,3.578,8,8v144     C168,396.422,164.422,400,160,400z" fill="#b4b6bc"/><path d="M376,256H136c-3.672,0-6.867-2.5-7.758-6.063c-0.891-3.555,0.758-7.266,3.992-9l120-64     c2.359-1.25,5.172-1.25,7.531,0l120,64c3.234,1.734,4.883,5.445,3.992,9C382.867,253.5,379.672,256,376,256z M168,240h176     l-88-46.93L168,240z" fill="#868491"/><g><path d="M128,368c-4.422,0-8-3.578-8-8v-8c0-4.422,3.578-8,8-8s8,3.578,8,8v8      C136,364.422,132.422,368,128,368z" fill="#5c546a"/><path d="M104,368c-4.422,0-8-3.578-8-8v-8c0-4.422,3.578-8,8-8s8,3.578,8,8v8      C112,364.422,108.422,368,104,368z" fill="#5c546a"/><path d="M80,368c-4.422,0-8-3.578-8-8v-8c0-4.422,3.578-8,8-8s8,3.578,8,8v8      C88,364.422,84.422,368,80,368z" fill="#5c546a"/><path d="M56,368c-4.422,0-8-3.578-8-8v-8c0-4.422,3.578-8,8-8s8,3.578,8,8v8      C64,364.422,60.422,368,56,368z" fill="#5c546a"/><path d="M128,336c-4.422,0-8-3.578-8-8v-24c0-4.422,3.578-8,8-8s8,3.578,8,8v24      C136,332.422,132.422,336,128,336z" fill="#5c546a"/><path d="M104,336c-4.422,0-8-3.578-8-8v-24c0-4.422,3.578-8,8-8s8,3.578,8,8v24      C112,332.422,108.422,336,104,336z" fill="#5c546a"/><path d="M80,336c-4.422,0-8-3.578-8-8v-24c0-4.422,3.578-8,8-8s8,3.578,8,8v24      C88,332.422,84.422,336,80,336z" fill="#5c546a"/><path d="M56,336c-4.422,0-8-3.578-8-8v-24c0-4.422,3.578-8,8-8s8,3.578,8,8v24      C64,332.422,60.422,336,56,336z" fill="#5c546a"/></g><path d="M271.781,232h-31.562c-4.422,0-8-3.578-8-8s3.578-8,8-8h31.562c4.422,0,8,3.578,8,8     S276.203,232,271.781,232z" fill="#868491"/><path d="M504,400H8c-4.422,0-8-3.578-8-8s3.578-8,8-8h496c4.422,0,8,3.578,8,8S508.422,400,504,400z" fill="#5c546a"/></g></defs><g fi:class="KUsePattern"><pattern id="pattern_L1_0" width="350" height="350" patternUnits="userSpaceOnUse"><use xlink:href="#L1_0" x="-350" y="-350"/><use xlink:href="#L1_0" x="0" y="-350"/><use xlink:href="#L1_0" x="350" y="-350"/><use xlink:href="#L1_0" x="-350" y="0"/><use xlink:href="#L1_0" x="0" y="0"/><use xlink:href="#L1_0" x="350" y="0"/><use xlink:href="#L1_0" x="-350" y="350"/><use xlink:href="#L1_0" x="0" y="350"/><use xlink:href="#L1_0" x="350" y="350"/></pattern><rect x="0" y="0" width="100%" height="100%" fill="url(#pattern_L1_0)"/></g><g fi:class="KUsePattern"><pattern id="pattern_L1_1" width="350" height="350" patternUnits="userSpaceOnUse"><use xlink:href="#L1_1" x="-350" y="-350"/><use xlink:href="#L1_1" x="0" y="-350"/><use xlink:href="#L1_1" x="350" y="-350"/><use xlink:href="#L1_1" x="-350" y="0"/><use xlink:href="#L1_1" x="0" y="0"/><use xlink:href="#L1_1" x="350" y="0"/><use xlink:href="#L1_1" x="-350" y="350"/><use xlink:href="#L1_1" x="0" y="350"/><use xlink:href="#L1_1" x="350" y="350"/></pattern><rect x="0" y="0" width="100%" height="100%" fill="url(#pattern_L1_1)"/></g><g fi:class="KUsePattern"><pattern id="pattern_L1_2" width="350" height="350" patternUnits="userSpaceOnUse"><use xlink:href="#L1_2" x="-350" y="-350"/><use xlink:href="#L1_2" x="0" y="-350"/><use xlink:href="#L1_2" x="350" y="-350"/><use xlink:href="#L1_2" x="-350" y="0"/><use xlink:href="#L1_2" x="0" y="0"/><use xlink:href="#L1_2" x="350" y="0"/><use xlink:href="#L1_2" x="-350" y="350"/><use xlink:href="#L1_2" x="0" y="350"/><use xlink:href="#L1_2" x="350" y="350"/></pattern><rect x="0" y="0" width="100%" height="100%" fill="url(#pattern_L1_2)"/></g></svg>